<svg width="24" height="24" viewBox="0 0 24 24" fill="none" xmlns="http://www.w3.org/2000/svg">
<path d="M14.25 16.3125C13.9375 16.5938 13.4688 16.5938 13.1875 16.2812C12.9688 16.0312 12.5625 15.75 12 15.75C11.4062 15.75 11 16.0312 10.7812 16.2812C10.5 16.5938 10.0312 16.5938 9.71875 16.3125C9.40625 16.0312 9.40625 15.5625 9.6875 15.25C10.125 14.7812 10.9062 14.25 12 14.25C13.0625 14.25 13.8438 14.7812 14.2812 15.25C14.5625 15.5625 14.5625 16.0312 14.25 16.3125ZM8.5 11.5C8.5 11.25 8.59375 11 8.78125 10.8125L7.8125 10.5C7.5625 10.4062 7.4375 10.125 7.5 9.84375C7.59375 9.59375 7.875 9.4375 8.15625 9.53125L11.1562 10.5312C11.4062 10.625 11.5312 10.9062 11.4688 11.1875C11.375 11.4375 11.0938 11.5625 10.8125 11.5L10.5 11.375C10.5 11.4062 10.5 11.4688 10.5 11.5C10.5 12.0625 10.0625 12.5 9.5 12.5C8.9375 12.5 8.5 12.0625 8.5 11.5ZM15.5 11.5C15.5 12.0625 15.0625 12.5 14.5 12.5C13.9375 12.5 13.5 12.0625 13.5 11.5C13.5 11.4688 13.5 11.4062 13.5 11.375L13.1562 11.5C12.875 11.5625 12.5938 11.4375 12.5 11.1875C12.4375 10.9062 12.5625 10.625 12.8125 10.5312L15.8125 9.53125C16.0938 9.4375 16.375 9.59375 16.4688 9.84375C16.5312 10.125 16.4062 10.4062 16.1562 10.5L15.1875 10.8125C15.375 10.9688 15.5 11.25 15.5 11.5ZM4 12C4 7.59375 7.5625 4 12 4C16.4062 4 20 7.59375 20 12C20 16.4375 16.4062 20 12 20C7.5625 20 4 16.4375 4 12ZM12 18.5C15.5625 18.5 18.5 15.5938 18.5 12C18.5 8.4375 15.5625 5.5 12 5.5C8.40625 5.5 5.5 8.4375 5.5 12C5.5 15.5938 8.40625 18.5 12 18.5Z" fill="#FF0412"/>
</svg>
