<svg width="16" height="16" viewBox="0 0 16 16" fill="none" xmlns="http://www.w3.org/2000/svg">
<path d="M6.44141 5.34375L7.48047 5.48047C7.5625 5.48047 7.64453 5.53516 7.67188 5.61719C7.69922 5.69922 7.67188 5.78125 7.61719 5.83594L6.85156 6.57422L7.04297 7.61328C7.07031 7.69531 7.01562 7.77734 6.96094 7.83203C6.87891 7.88672 6.79688 7.88672 6.71484 7.83203L5.78516 7.33984L4.88281 7.83203C4.80078 7.88672 4.71875 7.88672 4.63672 7.83203C4.58203 7.77734 4.52734 7.69531 4.55469 7.61328L4.74609 6.57422L3.98047 5.83594C3.92578 5.78125 3.89844 5.69922 3.92578 5.61719C3.95312 5.53516 4.03516 5.48047 4.11719 5.48047L5.15625 5.34375L5.59375 4.38672C5.64844 4.30469 5.70312 4.25 5.78516 4.25C5.89453 4.25 5.94922 4.30469 6.00391 4.38672L6.44141 5.34375ZM10.8164 5.34375L11.8555 5.48047C11.9375 5.48047 12.0195 5.53516 12.0469 5.61719C12.0742 5.69922 12.0469 5.78125 11.9922 5.83594L11.2266 6.57422L11.418 7.61328C11.4453 7.69531 11.3906 7.77734 11.3359 7.83203C11.2539 7.88672 11.1719 7.88672 11.0898 7.83203L10.1875 7.33984L9.25781 7.83203C9.17578 7.88672 9.09375 7.88672 9.01172 7.83203C8.95703 7.77734 8.90234 7.69531 8.92969 7.61328L9.12109 6.57422L8.35547 5.83594C8.30078 5.78125 8.27344 5.69922 8.30078 5.61719C8.32812 5.53516 8.41016 5.48047 8.49219 5.48047L9.53125 5.34375L9.96875 4.38672C10.0234 4.30469 10.0781 4.25 10.1875 4.25C10.2695 4.25 10.3242 4.30469 10.3789 4.38672L10.8164 5.34375ZM10.543 9.19922C11.0625 9.0625 11.5273 9.52734 11.2266 9.96484C10.5703 11.0039 9.36719 11.6875 7.97266 11.6875C6.60547 11.6875 5.40234 11.0039 4.71875 9.96484C4.44531 9.52734 4.91016 9.0625 5.42969 9.19922C6.22266 9.39062 7.07031 9.47266 7.97266 9.47266C8.90234 9.47266 9.75 9.39062 10.543 9.19922ZM1 7.75C1 3.89453 4.11719 0.75 8 0.75C11.8555 0.75 15 3.89453 15 7.75C15 11.6328 11.8555 14.75 8 14.75C4.11719 14.75 1 11.6328 1 7.75ZM8 13.4375C11.1172 13.4375 13.6875 10.8945 13.6875 7.75C13.6875 4.63281 11.1172 2.0625 8 2.0625C4.85547 2.0625 2.3125 4.63281 2.3125 7.75C2.3125 10.8945 4.85547 13.4375 8 13.4375Z" fill="white"/>
</svg>
