<svg width="24" height="24" viewBox="0 0 24 24" fill="none" xmlns="http://www.w3.org/2000/svg">
<path d="M10.2188 9.25L11.4062 9.40625C11.5 9.40625 11.5938 9.46875 11.625 9.5625C11.6562 9.65625 11.625 9.75 11.5625 9.8125L10.6875 10.6562L10.9062 11.8438C10.9375 11.9375 10.875 12.0312 10.8125 12.0938C10.7188 12.1562 10.625 12.1562 10.5312 12.0938L9.46875 11.5312L8.4375 12.0938C8.34375 12.1562 8.25 12.1562 8.15625 12.0938C8.09375 12.0312 8.03125 11.9375 8.0625 11.8438L8.28125 10.6562L7.40625 9.8125C7.34375 9.75 7.3125 9.65625 7.34375 9.5625C7.375 9.46875 7.46875 9.40625 7.5625 9.40625L8.75 9.25L9.25 8.15625C9.3125 8.0625 9.375 8 9.46875 8C9.59375 8 9.65625 8.0625 9.71875 8.15625L10.2188 9.25ZM15.2188 9.25L16.4062 9.40625C16.5 9.40625 16.5938 9.46875 16.625 9.5625C16.6562 9.65625 16.625 9.75 16.5625 9.8125L15.6875 10.6562L15.9062 11.8438C15.9375 11.9375 15.875 12.0312 15.8125 12.0938C15.7188 12.1562 15.625 12.1562 15.5312 12.0938L14.5 11.5312L13.4375 12.0938C13.3438 12.1562 13.25 12.1562 13.1562 12.0938C13.0938 12.0312 13.0312 11.9375 13.0625 11.8438L13.2812 10.6562L12.4062 9.8125C12.3438 9.75 12.3125 9.65625 12.3438 9.5625C12.375 9.46875 12.4688 9.40625 12.5625 9.40625L13.75 9.25L14.25 8.15625C14.3125 8.0625 14.375 8 14.5 8C14.5938 8 14.6562 8.0625 14.7188 8.15625L15.2188 9.25ZM14.9062 13.6562C15.5 13.5 16.0312 14.0312 15.6875 14.5312C14.9375 15.7188 13.5625 16.5 11.9688 16.5C10.4062 16.5 9.03125 15.7188 8.25 14.5312C7.9375 14.0312 8.46875 13.5 9.0625 13.6562C9.96875 13.875 10.9375 13.9688 11.9688 13.9688C13.0312 13.9688 14 13.875 14.9062 13.6562ZM4 12C4 7.59375 7.5625 4 12 4C16.4062 4 20 7.59375 20 12C20 16.4375 16.4062 20 12 20C7.5625 20 4 16.4375 4 12ZM12 18.5C15.5625 18.5 18.5 15.5938 18.5 12C18.5 8.4375 15.5625 5.5 12 5.5C8.40625 5.5 5.5 8.4375 5.5 12C5.5 15.5938 8.40625 18.5 12 18.5Z" fill="#00BA5C"/>
</svg>
