<svg width="24" height="24" viewBox="0 0 24 24" fill="none" xmlns="http://www.w3.org/2000/svg">
<path d="M14.9062 13.6562C15.5 13.5 16.0312 14.0312 15.6875 14.5312C14.9375 15.7188 13.5625 16.5 11.9688 16.5C10.4062 16.5 9.03125 15.7188 8.25 14.5312C7.9375 14.0312 8.46875 13.5 9.0625 13.6562C9.96875 13.875 10.9375 13.9688 11.9688 13.9688C13.0312 13.9688 14 13.875 14.9062 13.6562ZM11.4375 9.5625L10.9062 11.5938C10.8438 11.875 10.5625 12.0312 10.2812 11.9688L8.25 11.4062C7.6875 11.2812 7.375 10.6875 7.53125 10.1562C7.65625 9.59375 8.25 9.25 8.78125 9.40625L9.3125 9.53125L9.4375 9.03125C9.59375 8.46875 10.1562 8.15625 10.7188 8.3125C11.2812 8.4375 11.5938 9.03125 11.4375 9.5625ZM14.6562 9.53125L15.1875 9.40625C15.7188 9.25 16.3125 9.59375 16.4375 10.1562C16.5938 10.6875 16.2812 11.2812 15.7188 11.4062L13.6875 11.9688C13.4062 12.0312 13.125 11.875 13.0625 11.5938L12.5312 9.5625C12.375 9.03125 12.6875 8.4375 13.25 8.3125C13.8125 8.15625 14.375 8.46875 14.5312 9.03125L14.6562 9.53125ZM20 12C20 16.4375 16.4062 20 12 20C7.5625 20 4 16.4375 4 12C4 7.59375 7.5625 4 12 4C16.4062 4 20 7.59375 20 12ZM12 5.5C8.40625 5.5 5.5 8.4375 5.5 12C5.5 15.5938 8.40625 18.5 12 18.5C15.5625 18.5 18.5 15.5938 18.5 12C18.5 8.4375 15.5625 5.5 12 5.5Z" fill="#1C9AF4"/>
</svg>
