<svg width="24" height="24" viewBox="0 0 24 24" fill="none" xmlns="http://www.w3.org/2000/svg">
<path d="M14.9062 13.6562C15.5 13.5 16.0312 14.0312 15.6875 14.5312C14.9375 15.7188 13.5625 16.5 11.9688 16.5C10.4062 16.5 9.03125 15.7188 8.25 14.5312C7.9375 14.0312 8.46875 13.5 9.0625 13.6562C9.96875 13.875 10.9375 13.9688 11.9688 13.9688C13.0312 13.9688 14 13.875 14.9062 13.6562ZM11 10C11 11.125 10.5312 12 10 12C9.4375 12 9 11.125 9 10C9 8.90625 9.4375 8 10 8C10.5312 8 11 8.90625 11 10ZM13 10C13 8.90625 13.4375 8 14 8C14.5312 8 15 8.90625 15 10C15 11.125 14.5312 12 14 12C13.4375 12 13 11.125 13 10ZM20 12C20 16.4375 16.4062 20 12 20C7.5625 20 4 16.4375 4 12C4 7.59375 7.5625 4 12 4C16.4062 4 20 7.59375 20 12ZM12 5.5C8.40625 5.5 5.5 8.4375 5.5 12C5.5 15.5938 8.40625 18.5 12 18.5C15.5625 18.5 18.5 15.5938 18.5 12C18.5 8.4375 15.5625 5.5 12 5.5Z" fill="#FFB416"/>
</svg>
