<svg width="16" height="16" viewBox="0 0 16 16" fill="none" xmlns="http://www.w3.org/2000/svg">
<path d="M4.9375 6.4375C5.40234 6.4375 5.78516 6.84766 5.78516 7.3125C5.78516 7.80469 5.40234 8.1875 4.9375 8.1875C4.44531 8.1875 4.0625 7.80469 4.0625 7.3125C4.0625 6.84766 4.44531 6.4375 4.9375 6.4375ZM8 6.4375C8.46484 6.4375 8.84766 6.84766 8.84766 7.3125C8.84766 7.75 8.4375 8.16016 8 8.16016C7.53516 8.16016 7.125 7.77734 7.125 7.3125C7.125 6.82031 7.50781 6.4375 8 6.4375ZM11.0625 6.4375C11.5273 6.4375 11.9375 6.84766 11.9102 7.3125C11.9102 7.80469 11.5273 8.1875 11.0625 8.1875C10.5977 8.1875 10.1875 7.80469 10.1875 7.3125C10.1875 6.84766 10.5703 6.4375 11.0625 6.4375ZM8 1.625C11.8555 1.625 14.9727 4.22266 14.9727 7.33984C14.9727 10.457 11.8555 13 8 13C7.09766 13 6.22266 12.8633 5.45703 12.6172C4.63672 13.1914 3.32422 13.875 1.65625 13.875C1.38281 13.875 1.13672 13.7383 1.05469 13.4648C0.972656 13.2188 1 12.9453 1.19141 12.7539C1.19141 12.7539 2.03906 11.8242 2.44922 10.7578C1.54688 9.80078 1 8.59766 1 7.3125C1 4.16797 4.11719 1.625 8 1.625ZM8 11.6875C11.1172 11.6875 13.6328 9.74609 13.6328 7.3125C13.6328 4.90625 11.0898 2.9375 7.97266 2.9375C4.85547 2.9375 2.3125 4.90625 2.3125 7.3125C2.3125 8.48828 2.88672 9.36328 3.37891 9.88281L3.95312 10.4844L3.65234 11.25C3.51562 11.6328 3.32422 12.0156 3.10547 12.3438C3.76172 12.125 4.30859 11.8242 4.69141 11.5508L5.21094 11.168L5.83984 11.3594C6.52344 11.5781 7.26172 11.6875 8 11.6875Z" fill="white"/>
</svg>
