<svg width="15" height="15" viewBox="0 0 15 15" fill="none" xmlns="http://www.w3.org/2000/svg">
<path d="M7.5 0.5C7.54786 0.500029 7.59459 0.514037 7.63477 0.540039C7.675 0.566151 7.707 0.603668 7.72656 0.647461L7.72754 0.649414L9.57812 4.74512L9.69922 5.01367L9.99414 5.03711L14.2695 5.37695C14.3183 5.38088 14.3647 5.39962 14.4033 5.42969C14.4226 5.44471 14.4401 5.46175 14.4541 5.48145L14.4863 5.54688C14.518 5.64193 14.491 5.7454 14.417 5.8125L11.0156 8.87402L10.7832 9.08301L10.8691 9.38379L12.2402 14.1807V14.1816C12.2542 14.2309 12.2531 14.2836 12.2363 14.332C12.2196 14.3804 12.1879 14.423 12.1465 14.4531C12.1053 14.483 12.0558 14.4998 12.0049 14.501C11.9537 14.5021 11.903 14.4873 11.8604 14.459H11.8613L7.77734 11.7373L7.5 11.5518L7.22266 11.7373L3.13867 14.459V14.46C3.09701 14.4878 3.04719 14.5023 2.99707 14.502C2.9472 14.5015 2.89849 14.4863 2.85742 14.458C2.81619 14.4295 2.78469 14.3885 2.7666 14.3418C2.7576 14.3185 2.75174 14.2942 2.75 14.2695L2.75586 14.1953L3.87305 9.35645L3.93652 9.08203L3.73535 8.88574L0.575195 5.80566C0.540852 5.77218 0.516625 5.72936 0.505859 5.68262C0.495107 5.6358 0.498323 5.58619 0.514648 5.54102C0.530992 5.49596 0.560517 5.4568 0.598633 5.42773C0.636811 5.39864 0.682617 5.38074 0.730469 5.37695L5.00586 5.03711L5.30078 5.01367L5.42188 4.74512L7.27246 0.648438L7.27344 0.646484C7.29307 0.60292 7.32512 0.566009 7.36523 0.540039C7.40545 0.514071 7.45213 0.499974 7.5 0.5Z" stroke="#FFBB00"/>
</svg>
